<?xml version="1.0" encoding="utf-8"?>
<!-- Generator: Adobe Illustrator 15.0.0, SVG Export Plug-In  -->
<!DOCTYPE svg PUBLIC "-//W3C//DTD SVG 1.1//EN" "http://www.w3.org/Graphics/SVG/1.1/DTD/svg11.dtd" [
	<!ENTITY ns_flows "http://ns.adobe.com/Flows/1.0/">
]>
<svg version="1.1"
	 xmlns="http://www.w3.org/2000/svg" xmlns:xlink="http://www.w3.org/1999/xlink" xmlns:a="http://ns.adobe.com/AdobeSVGViewerExtensions/3.0/"
	 x="0px" y="0px" width="77px" height="37px" viewBox="0.844 -0.686 77 37"
	 overflow="visible" enable-background="new 0.844 -0.686 77 37" xml:space="preserve">
<defs>
</defs>
<path display="none" d="M22.977,23.321c0.017-0.032,0.034-0.062,0.047-0.097c0.013-0.043,0.018-0.084,0.025-0.127
	c0.018-0.074,0.046-0.145,0.046-0.225v-7.876c0.062-0.396-0.114-0.808-0.482-1.021l-7.035-4.062
	c-0.371-0.214-0.815-0.16-1.127,0.095l-13.89,8.021c-0.479,0.276-0.642,0.888-0.366,1.367c0.186,0.319,0.521,0.5,0.867,0.5
	c0.169,0,0.341-0.043,0.499-0.135l13.536-7.814l5.998,3.463v6.928l-13.46,7.771c-0.479,0.275-0.642,0.888-0.366,1.365
	c0.186,0.321,0.521,0.5,0.867,0.5c0.169,0,0.341-0.043,0.499-0.134l13.943-8.05C22.769,23.681,22.894,23.509,22.977,23.321z"/>
<path display="none" d="M15.979,18.363c-0.277-0.479-0.89-0.644-1.366-0.366L0.657,26.054c-0.479,0.276-0.642,0.889-0.366,1.366
	c0.186,0.321,0.521,0.5,0.867,0.5c0.169,0,0.342-0.043,0.499-0.134l13.956-8.059C16.091,19.453,16.255,18.841,15.979,18.363z"/>
<path display="none" d="M29.631,9.945L15.596,1.841c-0.038-0.021-0.08-0.023-0.119-0.04c-0.063-0.027-0.125-0.052-0.193-0.065
	c-0.064-0.012-0.125-0.013-0.189-0.013s-0.125,0.001-0.188,0.013c-0.068,0.013-0.13,0.039-0.194,0.065
	c-0.039,0.017-0.08,0.018-0.117,0.04L0.56,9.946c-0.479,0.276-0.642,0.887-0.366,1.366c0.186,0.321,0.521,0.5,0.867,0.5
	c0.169,0,0.342-0.043,0.499-0.134l13.536-7.815l12.999,7.505v15.012l-13.491,7.788c-0.479,0.275-0.642,0.889-0.366,1.366
	c0.186,0.321,0.521,0.5,0.867,0.5c0.169,0,0.341-0.043,0.499-0.134l13.991-8.077c0.323-0.187,0.487-0.527,0.485-0.875
	c0.002-0.026,0.015-0.05,0.015-0.075V11.021C30.185,10.606,30.017,10.167,29.631,9.945z"/>
<path display="none" d="M42.48,13.59c0.957-1.328,2.338-1.992,4.194-1.992c1.416,0,2.609,0.647,3.605,1.473
	c0.996,0.826,1.482,1.801,1.482,3.801h0.674l0.029-0.323c0.039-1.748-0.51-3.22-1.648-4.182s-2.527-1.502-4.167-1.502
	c-2.012,0-3.643,0.698-4.786,2.153s-1.768,3.335-1.768,5.699v0.615c0,2.373,0.628,4.287,1.775,5.742s2.759,2.183,4.78,2.183
	c1.543,0,2.917-0.462,4.093-1.385c1.177-0.922,1.752-2.26,1.713-3.812l-0.021-0.188h-0.674c0,2-0.513,2.663-1.538,3.396
	c-1.025,0.732-2.207,1.147-3.545,1.147c-1.875,0-3.241-0.638-4.198-1.96c-0.957-1.324-1.385-3.016-1.385-5.124v-0.615
	C41.095,16.627,41.523,14.918,42.48,13.59z"/>
<path display="none" d="M67.095,22.028c0,1.338-0.785,2.411-1.668,3.223c-0.885,0.812-2.141,1.216-3.79,1.216
	c-1.349,0-2.491-0.513-3.282-1.537c-0.791-1.025-1.26-2.613-1.26-4.762v-9.295h-1v9.266c0,2.433,0.646,4.228,1.568,5.383
	c0.924,1.158,2.291,1.736,3.923,1.736c1.317,0,2.483-0.273,3.407-0.82c0.922-0.547,1.656-1.36,2.153-2.366l0.142,2.802h0.807v-16h-1
	V22.028z"/>
<polygon display="none" fill="#20C05C" stroke="#FFFFFF" stroke-width="0.25" stroke-linecap="round" stroke-linejoin="round" stroke-miterlimit="10" points="
	20.042,11.218 17.113,12.195 17.113,32.885 19.041,32.243 19.041,14.401 25.899,29.958 28.213,29.186 28.213,8.495 26.284,9.138 
	26.284,25.521 "/>
<polygon fill="#EAEAEA" stroke="#FFFFFF" stroke-width="0.25" stroke-linecap="round" stroke-linejoin="round" stroke-miterlimit="10" points="
	30.175,5.547 15.15,10.556 15.15,35.833 30.175,30.825 "/>
<polyline fill="#33CC66" stroke="#FFFFFF" stroke-width="0.25" stroke-linecap="round" stroke-linejoin="round" stroke-miterlimit="10" points="
	0.125,5.547 0.125,30.825 15.15,35.833 15.15,10.556 "/>
<polygon fill="#FFFFFF" stroke="#FFFFFF" stroke-width="0.25" stroke-linecap="round" stroke-linejoin="round" stroke-miterlimit="10" points="
	4.626,11.453 4.626,9.341 10.65,11.349 10.65,13.461 8.669,12.801 8.669,29.267 10.65,29.927 10.65,32.04 4.626,30.032 
	4.626,27.919 6.606,28.58 6.606,12.113 "/>
<polygon fill="#EAEAEA" stroke="#FFFFFF" stroke-width="0.25" stroke-linecap="round" stroke-linejoin="round" stroke-miterlimit="10" points="
	0.125,5.547 15.15,10.556 30.175,5.547 15.15,0.539 "/>
<line fill="none" stroke="#FFFFFF" stroke-width="0.25" stroke-linecap="round" stroke-linejoin="round" stroke-miterlimit="10" x1="15.15" y1="35.833" x2="15.15" y2="10.556"/>
<line fill="none" stroke="#FFFFFF" stroke-width="0.25" stroke-linecap="round" stroke-linejoin="round" stroke-miterlimit="10" x1="15.15" y1="10.556" x2="30.175" y2="5.547"/>
<line fill="none" stroke="#FFFFFF" stroke-width="0.25" stroke-linecap="round" stroke-linejoin="round" stroke-miterlimit="10" x1="15.15" y1="35.833" x2="15.15" y2="10.556"/>
<line fill="none" stroke="#FFFFFF" stroke-width="0.25" stroke-linecap="round" stroke-linejoin="round" stroke-miterlimit="10" x1="15.15" y1="10.556" x2="30.175" y2="5.547"/>
<polygon fill="#33CC66" points="20.042,11.218 17.113,12.195 17.113,32.885 19.041,32.243 19.041,14.401 25.899,29.958 
	28.213,29.186 28.213,8.495 26.284,9.138 26.284,25.521 "/>
<text transform="matrix(1 0 0 1 67.2808 5.022)" fill="#EAEAEA" font-family="'MyriadPro-Regular'" font-size="6">tm</text>
<rect x="33.944" y="9.341" fill="none" width="43.032" height="27.4"/>
<text transform="matrix(1 0 0 1 33.9438 29.2212)" fill="#33CC66" font-family="'MyriadPro-Regular'" font-size="28">situ</text>
</svg>
